<svg width="274" height="56" viewBox="0 0 274 56" fill="none" xmlns="http://www.w3.org/2000/svg">
<path d="M0 6C0 2.68629 2.68629 0 6 0H44.2724C47.5862 0 50.2724 2.68629 50.2724 6V40C50.2724 43.3137 47.5862 46 44.2724 46H29.101C27.2851 46 25.5668 46.8224 24.4278 48.2368L23.5039 49.3841C21.1342 52.3268 16.5476 51.9684 14.6638 48.6934V48.6934C13.7054 47.0271 11.9296 46 10.0074 46H6C2.68629 46 0 43.3137 0 40V6Z" fill="black"/>
<path d="M24.0588 8.86434C27.5569 7.00123 28.062 9.92992 28.037 11.4288C28.0138 12.9281 26.4924 17.9373 22.9742 15.8173C19.458 13.6975 22.0428 9.93858 24.0588 8.86434ZM18.6867 21.5961C22.3045 19.3589 19.6346 15.1686 17.3627 14.487C15.0909 13.8049 14.6369 17.5321 14.7996 19.5357C14.7996 19.5357 15.0687 23.8339 18.6867 21.5961ZM38.2003 20.0704C35.8916 19.5246 31.4834 21.8184 33.4988 25.565C35.5129 29.3119 37.8953 25.7242 37.8953 25.7242C39.0381 24.0701 40.5081 20.6154 38.2003 20.0704ZM32.6592 18.4127C36.7637 18.3349 36.4052 13.7873 35.1967 11.849C33.0988 8.4865 31.197 10.7703 30.4695 12.0809C29.7387 13.3899 28.5522 18.4889 32.6592 18.4127ZM32.338 28.2045C32.3043 28.1526 32.2665 28.0993 32.222 28.0449C30.6599 26.1282 31.1713 24.6965 31.1713 24.6965L31.1683 24.6957C31.9024 22.2386 31.2691 19.4079 27.4245 18.3771C27.4245 18.3771 27.4239 18.377 27.4237 18.3769C27.4234 18.3768 27.4231 18.3767 27.4231 18.3767C27.4228 18.3767 27.4219 18.3764 27.4216 18.3763C27.4213 18.3763 27.421 18.3762 27.421 18.3762C23.5764 17.3467 21.612 19.4813 21.0192 21.9763L21.0171 21.9757C21.0171 21.9757 20.7445 23.4713 18.4336 24.3503C18.3705 24.3746 18.3139 24.4 18.2605 24.4266C17.0075 24.9145 15.76 25.8603 15.2716 27.6834C14.1496 31.8704 15.2927 34.309 17.3861 34.8606C17.3861 34.8606 17.4423 34.8821 17.5426 34.9093C17.81 34.9822 18.388 35.1007 19.0333 34.9863C19.437 34.915 19.8665 34.7531 20.2635 34.4317C21.454 33.4684 22.4611 33.229 23.2213 33.4511C23.272 33.4659 23.3214 33.483 23.3701 33.5013C23.4214 33.5092 23.4725 33.5197 23.5241 33.5322C24.2935 33.7197 25.0455 34.4301 25.5951 35.8603C25.7781 36.3371 26.0699 36.693 26.3832 36.9557C26.885 37.3775 27.4446 37.5638 27.7126 37.6343C27.8129 37.6603 27.8722 37.6703 27.8722 37.6703C29.9613 38.2391 32.1708 36.6988 33.2927 32.5121C33.7797 30.6932 33.1763 29.2531 32.338 28.2045Z" fill="#FAC232"/>
<path d="M65.368 34V17.2H73.648C75.52 17.2 77.168 17.544 78.592 18.232C80.016 18.904 81.128 19.864 81.928 21.112C82.728 22.36 83.128 23.848 83.128 25.576C83.128 27.32 82.728 28.824 81.928 30.088C81.128 31.336 80.016 32.304 78.592 32.992C77.168 33.664 75.52 34 73.648 34H65.368ZM71.032 29.584H73.408C74.208 29.584 74.904 29.432 75.496 29.128C76.104 28.824 76.576 28.376 76.912 27.784C77.248 27.176 77.416 26.44 77.416 25.576C77.416 24.728 77.248 24.008 76.912 23.416C76.576 22.824 76.104 22.376 75.496 22.072C74.904 21.768 74.208 21.616 73.408 21.616H71.032V29.584ZM94.0041 34.384C92.6441 34.384 91.3801 34.168 90.2121 33.736C89.0601 33.304 88.0601 32.696 87.2121 31.912C86.3641 31.112 85.7001 30.176 85.2201 29.104C84.7561 28.032 84.5241 26.864 84.5241 25.6C84.5241 24.32 84.7561 23.152 85.2201 22.096C85.7001 21.024 86.3641 20.096 87.2121 19.312C88.0601 18.512 89.0601 17.896 90.2121 17.464C91.3801 17.032 92.6441 16.816 94.0041 16.816C95.3801 16.816 96.6441 17.032 97.7961 17.464C98.9481 17.896 99.9481 18.512 100.796 19.312C101.644 20.096 102.3 21.024 102.764 22.096C103.244 23.152 103.484 24.32 103.484 25.6C103.484 26.864 103.244 28.032 102.764 29.104C102.3 30.176 101.644 31.112 100.796 31.912C99.9481 32.696 98.9481 33.304 97.7961 33.736C96.6441 34.168 95.3801 34.384 94.0041 34.384ZM94.0041 29.8C94.5321 29.8 95.0201 29.704 95.4681 29.512C95.9321 29.32 96.3321 29.048 96.6681 28.696C97.0201 28.328 97.2921 27.888 97.4841 27.376C97.6761 26.848 97.7721 26.256 97.7721 25.6C97.7721 24.944 97.6761 24.36 97.4841 23.848C97.2921 23.32 97.0201 22.88 96.6681 22.528C96.3321 22.16 95.9321 21.88 95.4681 21.688C95.0201 21.496 94.5321 21.4 94.0041 21.4C93.4761 21.4 92.9801 21.496 92.5161 21.688C92.0681 21.88 91.6681 22.16 91.3161 22.528C90.9801 22.88 90.7161 23.32 90.5241 23.848C90.3321 24.36 90.2361 24.944 90.2361 25.6C90.2361 26.256 90.3321 26.848 90.5241 27.376C90.7161 27.888 90.9801 28.328 91.3161 28.696C91.6681 29.048 92.0681 29.32 92.5161 29.512C92.9801 29.704 93.4761 29.8 94.0041 29.8ZM105.54 34V17.2H110.196L118.74 27.424H116.58V17.2H122.1V34H117.444L108.9 23.776H111.06V34H105.54ZM129.893 30.4L129.581 24.184L135.917 17.2H142.085L134.981 25.024L131.837 28.24L129.893 30.4ZM124.829 34V17.2H130.397V34H124.829ZM135.869 34L130.925 27.472L134.597 23.584L142.421 34H135.869ZM148.365 23.44H155.853V27.52H148.365V23.44ZM148.749 29.728H157.149V34H143.181V17.2H156.837V21.472H148.749V29.728ZM163.532 34V26.632L164.828 30.016L157.196 17.2H163.172L168.332 25.96H164.852L170.06 17.2H175.532L167.948 30.016L169.196 26.632V34H163.532ZM189.71 34.384C188.302 34.384 186.942 34.224 185.63 33.904C184.318 33.584 183.238 33.168 182.39 32.656L184.214 28.528C185.014 28.992 185.902 29.368 186.878 29.656C187.87 29.928 188.83 30.064 189.758 30.064C190.302 30.064 190.726 30.032 191.03 29.968C191.35 29.888 191.582 29.784 191.726 29.656C191.87 29.512 191.942 29.344 191.942 29.152C191.942 28.848 191.774 28.608 191.438 28.432C191.102 28.256 190.654 28.112 190.094 28C189.55 27.872 188.95 27.744 188.294 27.616C187.638 27.472 186.974 27.288 186.302 27.064C185.646 26.84 185.038 26.544 184.478 26.176C183.934 25.808 183.494 25.328 183.158 24.736C182.822 24.128 182.654 23.376 182.654 22.48C182.654 21.44 182.942 20.496 183.518 19.648C184.11 18.784 184.982 18.096 186.134 17.584C187.302 17.072 188.75 16.816 190.478 16.816C191.614 16.816 192.734 16.936 193.838 17.176C194.942 17.416 195.934 17.784 196.814 18.28L195.11 22.384C194.278 21.968 193.47 21.656 192.686 21.448C191.918 21.24 191.166 21.136 190.43 21.136C189.886 21.136 189.454 21.184 189.134 21.28C188.814 21.376 188.582 21.504 188.438 21.664C188.31 21.824 188.246 22 188.246 22.192C188.246 22.48 188.414 22.712 188.75 22.888C189.086 23.048 189.526 23.184 190.07 23.296C190.63 23.408 191.238 23.528 191.894 23.656C192.566 23.784 193.23 23.96 193.886 24.184C194.542 24.408 195.142 24.704 195.686 25.072C196.246 25.44 196.694 25.92 197.03 26.512C197.366 27.104 197.534 27.84 197.534 28.72C197.534 29.744 197.238 30.688 196.646 31.552C196.07 32.4 195.206 33.088 194.054 33.616C192.902 34.128 191.454 34.384 189.71 34.384ZM199.22 34V17.2H204.884V34H199.22ZM211.258 34V21.592H206.338V17.2H221.842V21.592H216.922V34H211.258ZM227.196 34V21.592H222.276V17.2H237.78V21.592H232.86V34H227.196ZM244.435 23.44H251.923V27.52H244.435V23.44ZM244.819 29.728H253.219V34H239.251V17.2H252.907V21.472H244.819V29.728ZM255.399 34V17.2H263.487C265.055 17.2 266.407 17.456 267.543 17.968C268.695 18.48 269.583 19.216 270.207 20.176C270.831 21.12 271.143 22.24 271.143 23.536C271.143 24.832 270.831 25.952 270.207 26.896C269.583 27.824 268.695 28.536 267.543 29.032C266.407 29.528 265.055 29.776 263.487 29.776H258.543L261.063 27.448V34H255.399ZM265.455 34L261.327 27.88H267.327L271.503 34H265.455ZM261.063 28.072L258.543 25.504H263.127C263.911 25.504 264.487 25.328 264.855 24.976C265.239 24.624 265.431 24.144 265.431 23.536C265.431 22.928 265.239 22.448 264.855 22.096C264.487 21.744 263.911 21.568 263.127 21.568H258.543L261.063 19V28.072Z" fill="black"/>
</svg>
